<svg xmlns="http://www.w3.org/2000/svg" xmlns:xlink="http://www.w3.org/1999/xlink" width="82" height="82" viewBox="0 0 82 82">
    <defs>
        <path id="kshvd0asda" d="M0 0c22.6 0 40.92 18.32 40.92 40.92S22.6 81.84 0 81.84V0z"/>
        <path id="pnmoqjczxc" d="M40.92 81.84C18.32 81.84 0 63.52 0 40.92S18.32 0 40.92 0v81.84z"/>
    </defs>
    <g fill="none" fill-rule="evenodd">
        <g transform="translate(40.92)">
            <path fill="#00BFFF" fill-rule="nonzero" d="M0 0c22.6 0 40.92 18.32 40.92 40.92S22.6 81.84 0 81.84V0z"/>
            <mask id="2hb8xnkwlb" fill="#fff">
                <use xlink:href="#kshvd0asda"/>
            </mask>
            <g mask="url(#2hb8xnkwlb)">
                <g fill-rule="nonzero">
                    <path fill="#AA45FF" d="M40.92 81.84C18.32 81.84 0 63.52 0 40.92S18.32 0 40.92 0s40.92 18.32 40.92 40.92-18.32 40.92-40.92 40.92z" transform="translate(-37.2)"/>
                    <path fill="#FFF" d="M60.873 26.04l6.087 6.277v20.926H50.727v6.277l-6.087-6.277v-6.278h16.233V26.04zm-8.117 4.185v8.37H44.64v-8.37h8.116z" transform="translate(-37.2)"/>
                </g>
            </g>
        </g>
        <path fill="#FFF" fill-rule="nonzero" d="M40.92 81.84C18.32 81.84 0 63.52 0 40.92S18.32 0 40.92 0v81.84z"/>
        <mask id="okcka9wtzd" fill="#fff">
            <use xlink:href="#pnmoqjczxc"/>
        </mask>
        <g fill-rule="nonzero" mask="url(#okcka9wtzd)">
            <circle cx="40.92" cy="40.92" r="40.92" fill="#497391"/>
            <g fill="#FFF">
                <path d="M.474 23.316L11.651.298 11.651 29.198zM23.55 23.316L12.333 29.198 12.333.29zM.474 24.158L11.651 29.753 11.651 38.75zM23.55 24.158L12.333 38.75 12.333 29.753z" transform="translate(11.16 22.32)"/>
            </g>
        </g>
    </g>
</svg>
