<svg xmlns="http://www.w3.org/2000/svg" width="232" height="232" viewBox="0 0 232 232">
    <path fill="#AA45FF" d="M43.8 224v8h-8v-8h8zm152 0v8h-8v-8h8zm-80-108c30.9 0 56 25.1 56 56s-25.1 56-56 56-56-25.1-56-56 25.1-56 56-56zm-36.9 25.3c-7.15 8.6-11.1 19.5-11.1 30.7 0 26.45 21.55 48 48 48 11.2 0 22.1-3.95 30.7-11.1l-5.1-6.15c-7.2 5.95-16.25 9.25-25.6 9.25-22.05 0-40-17.95-40-40 0-9.35 3.3-18.45 9.25-25.6zM30.5 83.45l12.4 49.5 17-42.5 11.6 27.05L82.25 96h29.55c0 4.1-.5 8.25-1.4 12.25-25.9 2.2-47.45 19.85-55.35 43.7-3.85-.05-7.6-.5-11.25-1.3V216h-8v-67.75c-2.8-1.1-5.45-2.35-8-3.85V196h-8v-57.25c-2.95-2.5-5.6-5.25-8-8.3V180h-8v-63.5C1.75 111.35.4 105.8 0 100h22.25l8.25-16.55zM135.8 16v40.85c2.45-2.5 5.1-4.75 8-6.75V24h8v21.5c7.3-3.5 15.4-5.5 24-5.5 30.9 0 56 25.1 56 56 0 7.3-1.45 14.25-4 20.7v63.35h-8v-49.5c-2.4 3-5.05 5.8-8 8.3V196h-8v-51.6c-2.55 1.5-5.2 2.75-8 3.8V216h-8v-65.35c-3.65.8-7.4 1.25-11.25 1.3-7.9-23.85-29.45-41.55-55.35-43.7-.9-4-1.4-8.1-1.4-12.25 0-10.5 2.95-20.3 8-28.7V16h8zm-108 188v8h-8v-8h8zm184 0v8h-8v-8h8zm-96-80c-11.2 0-22.1 3.9-30.7 11.1l5.1 6.15c7.2-5.95 16.25-9.25 25.6-9.25 22.05 0 40 17.95 40 40 0 9.35-3.3 18.45-9.25 25.6l6.15 5.1c7.15-8.6 11.1-19.5 11.1-30.7 0-26.45-21.55-48-48-48zm112 64v8h-8v-8h8zm-216 0v8h-8v-8h8zm110.9-37.05v27.55h-22.05v8.25l8.25 8.25v-8.25h22.05V159.2l-8.25-8.25zm-11 5.55h-11.05v11h11.05v-11zm64.1-103.7L147 96l28.8 43.2L204.6 96l-28.8-43.2zm-14.2 50.7l10.2 3.4v11.9l-10.2-15.3zm28.4 0l-10.2 15.3v-11.9l10.2-3.4zM103.8 16v51.4c3.7 6.2 6.3 13.15 7.35 20.6H77.3l-5.25 10.5-12.4-28.95-15 37.5-11.6-46.5L17.3 92H0c2.05-29 26.25-52 55.8-52 8.6 0 16.7 1.95 24 5.45V24h8v26.1c2.85 2.05 5.55 4.3 8 6.8V16h8zm68 57.2v25.25l-13.75-4.6L171.8 73.2zm8 0l13.75 20.65-13.75 4.6V73.2zM103.8 0v8h-8V0h8zm32 0v8h-8V0h8z"/>
</svg>
