<svg xmlns="http://www.w3.org/2000/svg" width="119" height="35" viewBox="0 0 119 35">
    <g fill="none">
        <g fill="#FFF">
            <path d="M.005 1.54h7.04c3.87 0 6.522 2.53 6.522 6.4 0 3.84-2.773 6.492-6.522 6.492H2.473v8.442H.005V1.54zm6.827 10.697c2.56 0 4.206-1.828 4.206-4.297 0-2.438-1.646-4.206-4.206-4.206H2.474v8.503h4.358zM19.906 9.067h-2.987V7.026h5.394v15.847h-2.407V9.067zm-.549-6.674c0-.975.732-1.737 1.737-1.737 1.036 0 1.768.762 1.768 1.737 0 1.006-.732 1.768-1.768 1.768-1.005 0-1.737-.762-1.737-1.768zM27.89 20.801L31.09 20.801 31.09 2.088 27.89 2.088 27.89.016 33.498.016 33.498 20.801 36.698 20.801 36.698 22.873 27.89 22.873 27.89 20.801zM40.05 20.801L43.25 20.801 43.25 2.088 40.05 2.088 40.05.016 45.658.016 45.658 20.801 48.858 20.801 48.858 22.873 40.05 22.873 40.05 20.801zM51.448 14.98c0-4.876 3.048-8.35 7.558-8.35 3.292 0 4.938 2.132 5.395 2.955h.183v-2.56h2.438v12.983c0 .488.305.732.792.732h.732v2.133h-1.554c-1.31 0-2.286-.975-2.317-2.347v-.152h-.182c-.396.64-1.86 2.895-5.303 2.895-4.542 0-7.742-3.443-7.742-8.29zm13.227.03c0-3.931-2.438-6.186-5.395-6.186-3.108 0-5.363 2.56-5.363 6.186 0 3.688 2.346 6.096 5.394 6.096 3.322 0 5.364-2.774 5.364-6.096zM73.421 7.026H75.8v2.651h.183c.457-1.341 2.011-3.047 4.327-3.047h1.036v2.407h-1.432c-2.896 0-4.084 2.347-4.084 5.364v8.472h-2.408V7.026z" transform="translate(36.25 4.846)"/>
        </g>
        <path fill="#00FF24" d="M6.397 34.116L0 27.719 0 21.322 17.058 21.322 17.058 0 23.455 6.397 23.455 27.719 6.397 27.719z"/>
        <path fill="#00FF24" d="M0 4.265H8.529V12.794H0z"/>
    </g>
</svg>
